<mxfile host="www.draw.io" modified="2020-01-26T20:29:29.235Z" agent="Mozilla/5.0 (Windows NT 10.0; Win64; x64) AppleWebKit/537.36 (KHTML, like Gecko) Chrome/79.0.3945.130 Safari/537.36" etag="Z0HopJRtttZ25TdLSZAD" version="12.5.8" type="github">
  <diagram id="AsDnkTUj2KpRAtkIhOe_" name="Page-1">
    <mxGraphModel dx="2207" dy="548" grid="1" gridSize="10" guides="1" tooltips="1" connect="1" arrows="1" fold="1" page="1" pageScale="1" pageWidth="1169" pageHeight="827" math="0" shadow="0">
      <root>
        <mxCell id="0"/>
        <mxCell id="1" parent="0"/>
        <mxCell id="Z3XzsynzwGdf3vpvGVct-1" value="&lt;p style=&quot;margin: 4px 0px 0px ; text-align: center&quot;&gt;&lt;i&gt;&amp;lt;&amp;lt;Requirement&amp;gt;&amp;gt;&lt;/i&gt;&lt;br&gt;&lt;b&gt;Système d&#39;assistance sociale&lt;/b&gt;&lt;/p&gt;&lt;hr size=&quot;1&quot;&gt;&lt;p style=&quot;margin: 0px ; margin-left: 4px&quot;&gt;id =&quot;1&quot;&lt;/p&gt;&lt;p style=&quot;text-align: justify ; margin: 0px 0px 0px 4px&quot;&gt;&lt;font style=&quot;font-size: 12px&quot;&gt;Text = &quot;&lt;span style=&quot;text-align: left&quot;&gt;Le réveil sonore classique utilisant une seule fonction sensorielle,&lt;/span&gt;&lt;/font&gt;&lt;/p&gt;&lt;p style=&quot;text-align: justify ; margin: 0px 0px 0px 4px&quot;&gt;&lt;font style=&quot;font-size: 12px&quot;&gt;&lt;span style=&quot;text-align: left&quot;&gt;l’ouïe, pour avertir l’utilisateur est souvent perçu comme étant stressant&amp;nbsp;&lt;/span&gt;&lt;/font&gt;&lt;/p&gt;&lt;p style=&quot;text-align: justify ; margin: 0px 0px 0px 4px&quot;&gt;&lt;font style=&quot;font-size: 12px&quot;&gt;&lt;span style=&quot;text-align: left&quot;&gt;et désagréable. La ZEN BOX est un dispositif de réveil en douceur qui&amp;nbsp;&lt;/span&gt;&lt;/font&gt;&lt;/p&gt;&lt;p style=&quot;text-align: justify ; margin: 0px 0px 0px 4px&quot;&gt;&lt;font style=&quot;font-size: 12px&quot;&gt;&lt;span style=&quot;text-align: left&quot;&gt;utilise différents organes de perception afin d’améliorer la qualité de la&amp;nbsp;&lt;/span&gt;&lt;/font&gt;&lt;/p&gt;&lt;p style=&quot;text-align: justify ; margin: 0px 0px 0px 4px&quot;&gt;&lt;font style=&quot;font-size: 12px&quot;&gt;&lt;span style=&quot;text-align: left&quot;&gt;phase sommeil-réveil. Le principe de fonctionnement du dispositif qu’on&amp;nbsp;&lt;/span&gt;&lt;/font&gt;&lt;/p&gt;&lt;p style=&quot;text-align: justify ; margin: 0px 0px 0px 4px&quot;&gt;&lt;font style=&quot;font-size: 12px&quot;&gt;&lt;span style=&quot;text-align: left&quot;&gt;souhaite mettre en place est d’utiliser deux autres organes de perception&lt;br&gt;de l’Homme pour un réveil progressif. L’odorat de l’utilisateur, d’une part,&amp;nbsp;&lt;/span&gt;&lt;/font&gt;&lt;/p&gt;&lt;p style=&quot;text-align: justify ; margin: 0px 0px 0px 4px&quot;&gt;&lt;font style=&quot;font-size: 12px&quot;&gt;&lt;span style=&quot;text-align: left&quot;&gt;sera activé à partir de la diffusion et/ou la convection d’un parfum.&quot;&lt;/span&gt;&lt;/font&gt;&lt;/p&gt;" style="verticalAlign=top;align=left;overflow=fill;fontSize=12;fontFamily=Helvetica;html=1;fillColor=#f5f5f5;strokeColor=#666666;" vertex="1" parent="1">
          <mxGeometry x="450" y="160" width="390" height="180" as="geometry"/>
        </mxCell>
        <mxCell id="Z3XzsynzwGdf3vpvGVct-2" style="rounded=0;html=1;exitX=1;exitY=0.5;entryX=0.097;entryY=-0.002;jettySize=auto;orthogonalLoop=1;shadow=1;dashed=1;endArrow=openThin;endFill=0;entryDx=0;entryDy=0;entryPerimeter=0;" edge="1" parent="1" source="Z3XzsynzwGdf3vpvGVct-3" target="Z3XzsynzwGdf3vpvGVct-1">
          <mxGeometry relative="1" as="geometry"/>
        </mxCell>
        <mxCell id="Z3XzsynzwGdf3vpvGVct-3" value="&lt;p style=&quot;margin: 0px ; margin-top: 4px ; text-align: center&quot;&gt;&lt;i&gt;&amp;lt;&amp;lt;Requirement&amp;gt;&amp;gt;&lt;/i&gt;&lt;br&gt;&lt;b&gt;S&#39;adapter au matériel&amp;nbsp;&lt;/b&gt;&lt;/p&gt;&lt;p style=&quot;margin: 0px ; margin-top: 4px ; text-align: center&quot;&gt;&lt;b&gt;à disposition&lt;/b&gt;&lt;/p&gt;&lt;hr size=&quot;1&quot;&gt;&lt;p style=&quot;margin: 0px ; margin-left: 4px&quot;&gt;id =&quot;2&quot;&lt;/p&gt;&lt;p style=&quot;margin: 0px ; margin-left: 4px&quot;&gt;Text = &quot;On dispose de tablettes de&amp;nbsp;&lt;/p&gt;&lt;p style=&quot;margin: 0px ; margin-left: 4px&quot;&gt;Asus, carte&amp;nbsp;&lt;span&gt;arduino mega2560&lt;/span&gt;&lt;/p&gt;&lt;p style=&quot;margin: 0px ; margin-left: 4px&quot;&gt;&lt;span&gt;pour les&amp;nbsp;&lt;/span&gt;&lt;span&gt;tests.&quot;&lt;/span&gt;&lt;/p&gt;" style="verticalAlign=top;align=left;overflow=fill;fontSize=12;fontFamily=Helvetica;html=1;fillColor=#f8cecc;strokeColor=#b85450;" vertex="1" parent="1">
          <mxGeometry x="150" width="200" height="130" as="geometry"/>
        </mxCell>
        <mxCell id="Z3XzsynzwGdf3vpvGVct-4" style="rounded=0;html=1;entryX=0.75;entryY=0;shadow=1;dashed=1;endArrow=openThin;endFill=0;jettySize=auto;orthogonalLoop=1;exitX=0.5;exitY=1;exitDx=0;exitDy=0;entryDx=0;entryDy=0;" edge="1" parent="1" source="Z3XzsynzwGdf3vpvGVct-5" target="Z3XzsynzwGdf3vpvGVct-1">
          <mxGeometry relative="1" as="geometry">
            <mxPoint x="870" y="164" as="sourcePoint"/>
          </mxGeometry>
        </mxCell>
        <mxCell id="Z3XzsynzwGdf3vpvGVct-5" value="&lt;p style=&quot;margin: 0px ; margin-top: 4px ; text-align: center&quot;&gt;&lt;i&gt;&amp;lt;&amp;lt;Requirement&amp;gt;&amp;gt;&lt;/i&gt;&lt;br&gt;&lt;b&gt;Induire des coûts&lt;/b&gt;&lt;/p&gt;&lt;p style=&quot;margin: 0px ; margin-top: 4px ; text-align: center&quot;&gt;&lt;b&gt;raisonnables&lt;/b&gt;&lt;/p&gt;&lt;hr size=&quot;1&quot;&gt;&lt;p style=&quot;margin: 0px ; margin-left: 4px&quot;&gt;id =&quot;4&quot;&lt;/p&gt;&lt;p style=&quot;margin: 0px ; margin-left: 4px&quot;&gt;Text = &quot; Le coût de la mise en&amp;nbsp;&lt;/p&gt;&lt;p style=&quot;margin: 0px ; margin-left: 4px&quot;&gt;&lt;span&gt;oeuvre&amp;nbsp;&lt;/span&gt;&lt;span&gt;du projet ne doit pas&amp;nbsp;&lt;/span&gt;&lt;span&gt;excéder&amp;nbsp;&lt;/span&gt;&lt;/p&gt;&lt;p style=&quot;margin: 0px ; margin-left: 4px&quot;&gt;&lt;span&gt;200 €&amp;nbsp;&lt;/span&gt;&lt;span&gt;environ .&lt;/span&gt;&lt;span&gt;&quot;&lt;/span&gt;&lt;/p&gt;" style="verticalAlign=top;align=left;overflow=fill;fontSize=12;fontFamily=Helvetica;html=1;fillColor=#e1d5e7;strokeColor=#9673a6;" vertex="1" parent="1">
          <mxGeometry x="720" width="195" height="120" as="geometry"/>
        </mxCell>
        <mxCell id="Z3XzsynzwGdf3vpvGVct-6" style="rounded=0;html=1;exitX=0.25;exitY=0;entryX=0.482;entryY=0.999;shadow=1;endArrow=circlePlus;endFill=0;jettySize=auto;orthogonalLoop=1;entryPerimeter=0;entryDx=0;entryDy=0;exitDx=0;exitDy=0;" edge="1" parent="1" source="Z3XzsynzwGdf3vpvGVct-7" target="Z3XzsynzwGdf3vpvGVct-1">
          <mxGeometry relative="1" as="geometry">
            <mxPoint x="482" y="257" as="targetPoint"/>
            <mxPoint x="340" y="257" as="sourcePoint"/>
          </mxGeometry>
        </mxCell>
        <mxCell id="Z3XzsynzwGdf3vpvGVct-7" value="&lt;p style=&quot;margin: 0px ; margin-top: 4px ; text-align: center&quot;&gt;&lt;i&gt;&amp;lt;&amp;lt;Requirement&amp;gt;&amp;gt;&lt;/i&gt;&lt;br&gt;&lt;b&gt;Réveil par diffusion olfactive&lt;/b&gt;&lt;/p&gt;&lt;hr size=&quot;1&quot;&gt;&lt;p style=&quot;margin: 0px ; margin-left: 4px&quot;&gt;id =&quot;19&quot;&lt;/p&gt;&lt;p style=&quot;margin: 0px ; margin-left: 4px&quot;&gt;Text = &quot;Nous devons pouvoir choisir&amp;nbsp;&lt;/p&gt;&lt;p style=&quot;margin: 0px ; margin-left: 4px&quot;&gt;facilement le mode réveil par diffusion&amp;nbsp;&lt;/p&gt;&lt;p style=&quot;margin: 0px ; margin-left: 4px&quot;&gt;olfactive désiré.&quot;&lt;/p&gt;" style="verticalAlign=top;align=left;overflow=fill;fontSize=12;fontFamily=Helvetica;html=1;fillColor=#b0e3e6;strokeColor=#0e8088;" vertex="1" parent="1">
          <mxGeometry x="470" y="377.5" width="210" height="105" as="geometry"/>
        </mxCell>
        <mxCell id="Z3XzsynzwGdf3vpvGVct-9" value="&lt;p style=&quot;margin: 0px ; margin-top: 4px ; text-align: center&quot;&gt;&lt;i&gt;&amp;lt;&amp;lt;Requirement&amp;gt;&amp;gt;&lt;/i&gt;&lt;br&gt;&lt;/p&gt;&lt;b&gt;&lt;div style=&quot;text-align: center&quot;&gt;&lt;b&gt;Olfactive par convection&amp;nbsp;&lt;/b&gt;&lt;/div&gt;&lt;div style=&quot;text-align: center&quot;&gt;&lt;b&gt;thermique&amp;nbsp;&lt;/b&gt;&lt;/div&gt;&lt;/b&gt;&lt;hr size=&quot;1&quot; style=&quot;text-align: center&quot;&gt;&lt;p style=&quot;margin: 0px 0px 0px 4px&quot;&gt;id =&quot;20&quot;&lt;/p&gt;&lt;p style=&quot;margin: 0px 0px 0px 4px&quot;&gt;Text =&amp;nbsp;&quot;Nous devrons pouvoir choisir&amp;nbsp;&lt;/p&gt;&lt;p style=&quot;margin: 0px 0px 0px 4px&quot;&gt;facilement le mode de convection&lt;/p&gt;&lt;p style=&quot;margin: 0px 0px 0px 4px&quot;&gt;désiré.&quot;&lt;/p&gt;" style="verticalAlign=top;align=left;overflow=fill;fontSize=12;fontFamily=Helvetica;html=1;fillColor=#b0e3e6;strokeColor=#0e8088;" vertex="1" parent="1">
          <mxGeometry x="400" y="510" width="200" height="122" as="geometry"/>
        </mxCell>
        <mxCell id="Z3XzsynzwGdf3vpvGVct-10" style="edgeStyle=elbowEdgeStyle;rounded=0;html=1;shadow=1;dashed=1;endArrow=openThin;endFill=0;jettySize=auto;orthogonalLoop=1;exitX=0.5;exitY=1;exitDx=0;exitDy=0;" edge="1" parent="1" source="Z3XzsynzwGdf3vpvGVct-11">
          <mxGeometry relative="1" as="geometry">
            <mxPoint x="630" y="111" as="sourcePoint"/>
            <mxPoint x="564" y="161" as="targetPoint"/>
            <Array as="points">
              <mxPoint x="564" y="130"/>
              <mxPoint x="760" y="121"/>
            </Array>
          </mxGeometry>
        </mxCell>
        <mxCell id="Z3XzsynzwGdf3vpvGVct-11" value="&lt;p style=&quot;margin: 0px ; margin-top: 4px ; text-align: center&quot;&gt;&lt;i&gt;&amp;lt;&amp;lt;Requirement&amp;gt;&amp;gt;&lt;/i&gt;&lt;br&gt;&lt;b&gt;Utilisation des modules&amp;nbsp;&lt;/b&gt;&lt;b&gt;compatibles&lt;/b&gt;&lt;/p&gt;&lt;hr size=&quot;1&quot;&gt;&lt;p style=&quot;margin: 0px ; margin-left: 4px&quot;&gt;id =&quot;3&quot;&lt;/p&gt;&lt;p style=&quot;margin: 0px ; margin-left: 4px&quot;&gt;Text = &quot;Les modules devront&amp;nbsp;&lt;span&gt;fournir des signaux&lt;/span&gt;&lt;/p&gt;&lt;p style=&quot;margin: 0px ; margin-left: 4px&quot;&gt;&lt;span&gt;compatibles&amp;nbsp;&lt;/span&gt;&lt;span&gt;avec une carte arduino 5V et&amp;nbsp;&lt;/span&gt;&lt;span&gt;être&amp;nbsp;&lt;/span&gt;&lt;/p&gt;&lt;p style=&quot;margin: 0px ; margin-left: 4px&quot;&gt;&lt;span&gt;facilement connectable.&lt;/span&gt;&lt;span&gt;&quot;&lt;/span&gt;&lt;/p&gt;" style="verticalAlign=top;align=left;overflow=fill;fontSize=12;fontFamily=Helvetica;html=1;fillColor=#dae8fc;strokeColor=#6c8ebf;" vertex="1" parent="1">
          <mxGeometry x="430" width="268" height="105" as="geometry"/>
        </mxCell>
        <mxCell id="Z3XzsynzwGdf3vpvGVct-12" style="edgeStyle=none;rounded=0;html=1;exitX=1;exitY=0.5;entryX=0;entryY=0.25;shadow=1;endArrow=circlePlus;endFill=0;jettySize=auto;orthogonalLoop=1;exitDx=0;exitDy=0;entryDx=0;entryDy=0;" edge="1" parent="1" source="Z3XzsynzwGdf3vpvGVct-17" target="Z3XzsynzwGdf3vpvGVct-1">
          <mxGeometry relative="1" as="geometry">
            <mxPoint x="640" y="420" as="sourcePoint"/>
          </mxGeometry>
        </mxCell>
        <mxCell id="Z3XzsynzwGdf3vpvGVct-13" style="edgeStyle=none;rounded=0;html=1;exitX=0.5;exitY=0;shadow=1;endArrow=circlePlus;endFill=0;jettySize=auto;orthogonalLoop=1;exitDx=0;exitDy=0;entryX=1;entryY=0.5;entryDx=0;entryDy=0;" edge="1" parent="1" source="Z3XzsynzwGdf3vpvGVct-21">
          <mxGeometry relative="1" as="geometry">
            <Array as="points"/>
            <mxPoint x="845" y="490" as="sourcePoint"/>
            <mxPoint x="750" y="340" as="targetPoint"/>
          </mxGeometry>
        </mxCell>
        <mxCell id="Z3XzsynzwGdf3vpvGVct-14" style="edgeStyle=none;rounded=0;html=1;exitX=0.25;exitY=1;shadow=1;dashed=1;endArrow=blockThin;endFill=1;jettySize=auto;orthogonalLoop=1;" edge="1" parent="1" source="Z3XzsynzwGdf3vpvGVct-5" target="Z3XzsynzwGdf3vpvGVct-5">
          <mxGeometry relative="1" as="geometry"/>
        </mxCell>
        <mxCell id="Z3XzsynzwGdf3vpvGVct-16" value="&lt;p style=&quot;margin: 0px ; margin-top: 4px ; text-align: center&quot;&gt;&lt;i&gt;&amp;lt;&amp;lt;Requirement&amp;gt;&amp;gt;&lt;/i&gt;&lt;/p&gt;&lt;p style=&quot;margin: 0px ; margin-top: 4px ; text-align: center&quot;&gt;&lt;b&gt;Créer une application&lt;/b&gt;&lt;/p&gt;&lt;hr size=&quot;1&quot;&gt;&lt;p style=&quot;margin: 0px ; margin-left: 4px&quot;&gt;id =&quot;26&quot;&lt;/p&gt;&lt;p style=&quot;margin: 0px ; margin-left: 4px&quot;&gt;Text = &quot;&lt;span&gt;Une application open_source&amp;nbsp;&lt;/span&gt;&lt;span&gt;permettra&amp;nbsp;&lt;/span&gt;&lt;/p&gt;&lt;p style=&quot;margin: 0px ; margin-left: 4px&quot;&gt;&lt;span&gt;au senior&amp;nbsp;d&#39;activer l&#39;une des&amp;nbsp;&lt;/span&gt;&lt;span&gt;commandes&lt;/span&gt;&lt;/p&gt;&lt;p style=&quot;margin: 0px ; margin-left: 4px&quot;&gt;&lt;span&gt;envisagées&amp;nbsp;&lt;/span&gt;&lt;span&gt;(affichage heure, date, passage au&amp;nbsp;&lt;/span&gt;&lt;/p&gt;&lt;p style=&quot;margin: 0px ; margin-left: 4px&quot;&gt;&lt;span&gt;piste suivante et présidente&amp;nbsp;d&#39;au&lt;/span&gt;&lt;span&gt;gmenter&amp;nbsp;&lt;/span&gt;&lt;span&gt;ou&amp;nbsp;&lt;/span&gt;&lt;/p&gt;&lt;p style=&quot;margin: 0px ; margin-left: 4px&quot;&gt;&lt;span&gt;d&lt;/span&gt;&lt;span&gt;iminuer&amp;nbsp;&lt;/span&gt;&lt;span&gt;le volume sonore).&quot;&lt;/span&gt;&lt;/p&gt;" style="verticalAlign=top;align=left;overflow=fill;fontSize=12;fontFamily=Helvetica;html=1;fillColor=#FF7773;strokeColor=#990000;" vertex="1" parent="1">
          <mxGeometry x="180" y="330" width="256.5" height="140" as="geometry"/>
        </mxCell>
        <mxCell id="Z3XzsynzwGdf3vpvGVct-17" value="&lt;p style=&quot;margin: 0px ; margin-top: 4px ; text-align: center&quot;&gt;&lt;i&gt;&amp;lt;&amp;lt;Requirement&amp;gt;&amp;gt;&lt;/i&gt;&lt;br&gt;&lt;/p&gt;&lt;b&gt;&lt;div style=&quot;text-align: center&quot;&gt;&lt;b&gt;Activer des commandes par une&amp;nbsp;&lt;/b&gt;&lt;/div&gt;&lt;div style=&quot;text-align: center&quot;&gt;&lt;b&gt;application&lt;/b&gt;&lt;/div&gt;&lt;/b&gt;&lt;hr size=&quot;1&quot; style=&quot;text-align: center&quot;&gt;&lt;p style=&quot;margin: 0px ; margin-left: 4px&quot;&gt;id =&quot;24&quot;&lt;/p&gt;&lt;p style=&quot;margin: 0px ; margin-left: 4px&quot;&gt;&lt;span&gt;Text = &quot;Nous activerons des commande&lt;/span&gt;&lt;/p&gt;&lt;p style=&quot;margin: 0px ; margin-left: 4px&quot;&gt;&lt;span&gt;grace à une application open-source:&lt;/span&gt;&lt;/p&gt;&lt;p style=&quot;margin: 0px ; margin-left: 4px&quot;&gt;&lt;span&gt;affichage de l&#39;heure et de la date, réglage&lt;/span&gt;&lt;/p&gt;&lt;p style=&quot;margin: 0px ; margin-left: 4px&quot;&gt;&lt;span&gt;d&#39;une chaîne&amp;nbsp;hi-fi (changement de piste,&amp;nbsp;&lt;/span&gt;&lt;/p&gt;&lt;p style=&quot;margin: 0px ; margin-left: 4px&quot;&gt;&lt;span&gt;volume)&quot;&lt;/span&gt;&lt;/p&gt;" style="verticalAlign=top;align=left;overflow=fill;fontSize=12;fontFamily=Helvetica;html=1;fillColor=#FF7773;strokeColor=#990000;" vertex="1" parent="1">
          <mxGeometry x="150" y="150" width="230" height="144" as="geometry"/>
        </mxCell>
        <mxCell id="Z3XzsynzwGdf3vpvGVct-18" style="edgeStyle=none;rounded=0;html=1;dashed=1;jettySize=auto;orthogonalLoop=1;exitX=0.75;exitY=0;exitDx=0;exitDy=0;entryX=0.623;entryY=1.001;entryDx=0;entryDy=0;entryPerimeter=0;" edge="1" parent="1" source="Z3XzsynzwGdf3vpvGVct-16" target="Z3XzsynzwGdf3vpvGVct-17">
          <mxGeometry relative="1" as="geometry">
            <mxPoint x="350" y="519" as="targetPoint"/>
            <Array as="points"/>
            <mxPoint x="640" y="600" as="sourcePoint"/>
          </mxGeometry>
        </mxCell>
        <mxCell id="Z3XzsynzwGdf3vpvGVct-19" value="&lt;p style=&quot;margin: 0px ; margin-top: 4px ; text-align: center&quot;&gt;&lt;i&gt;&amp;lt;&amp;lt;Requirement&amp;gt;&amp;gt;&lt;/i&gt;&lt;/p&gt;&lt;div style=&quot;text-align: center&quot;&gt;&lt;b&gt;S&#39;adapter au format des&amp;nbsp;&lt;/b&gt;&lt;/div&gt;&lt;div style=&quot;text-align: center&quot;&gt;&lt;span&gt;&lt;b&gt;écrans&amp;nbsp;&lt;/b&gt;&lt;/span&gt;&lt;b&gt;tactile&lt;/b&gt;&lt;/div&gt;&lt;hr size=&quot;1&quot;&gt;&lt;p style=&quot;margin: 0px ; margin-left: 4px&quot;&gt;id =&quot;25&quot;&lt;/p&gt;&lt;p style=&quot;margin: 0px ; margin-left: 4px&quot;&gt;Text = &quot; L&#39;application devra être&amp;nbsp;&lt;/p&gt;&lt;p style=&quot;margin: 0px ; margin-left: 4px&quot;&gt;&lt;span&gt;adaptative: elle fonctionnera sur un&lt;/span&gt;&lt;/p&gt;&lt;p style=&quot;margin: 0px ; margin-left: 4px&quot;&gt;&lt;span&gt;téléphone ou sur une tablette même&amp;nbsp;&lt;/span&gt;&lt;/p&gt;&lt;p style=&quot;margin: 0px ; margin-left: 4px&quot;&gt;&lt;span&gt;leur format est différent.&quot;&lt;/span&gt;&lt;/p&gt;" style="verticalAlign=top;align=left;overflow=fill;fontSize=12;fontFamily=Helvetica;html=1;fillColor=#FF7773;strokeColor=#990000;" vertex="1" parent="1">
          <mxGeometry x="-80" y="164" width="200" height="130" as="geometry"/>
        </mxCell>
        <mxCell id="Z3XzsynzwGdf3vpvGVct-21" value="&lt;p style=&quot;margin: 0px ; margin-top: 4px ; text-align: center&quot;&gt;&lt;i&gt;&amp;lt;&amp;lt;Requirement&amp;gt;&amp;gt;&lt;/i&gt;&lt;br&gt;&lt;b&gt;Réveil acoustique&amp;nbsp;&lt;/b&gt;&lt;/p&gt;&lt;hr size=&quot;1&quot;&gt;&lt;p style=&quot;margin: 0px ; margin-left: 4px&quot;&gt;id =&quot;11&quot;&lt;/p&gt;&lt;p style=&quot;margin: 0px ; margin-left: 4px&quot;&gt;Text = &quot;&lt;span&gt;Nous devons pouvoir choisir&amp;nbsp;&lt;/span&gt;&lt;/p&gt;&lt;p style=&quot;margin: 0px 0px 0px 4px&quot;&gt;facilement le mode réveil éclairage&amp;nbsp;&lt;/p&gt;&lt;p style=&quot;margin: 0px 0px 0px 4px&quot;&gt;&lt;span&gt;désiré.&quot;&lt;/span&gt;&lt;/p&gt;" style="verticalAlign=top;align=left;overflow=fill;fontSize=12;fontFamily=Helvetica;html=1;fillColor=#cce5ff;strokeColor=#36393d;" vertex="1" parent="1">
          <mxGeometry x="720" y="362.5" width="200" height="107.5" as="geometry"/>
        </mxCell>
        <mxCell id="Z3XzsynzwGdf3vpvGVct-22" style="edgeStyle=none;rounded=0;html=1;exitX=0.5;exitY=0;exitDx=0;exitDy=0;dashed=1;jettySize=auto;orthogonalLoop=1;entryX=0.75;entryY=1;entryDx=0;entryDy=0;" edge="1" parent="1" source="Z3XzsynzwGdf3vpvGVct-41" target="Z3XzsynzwGdf3vpvGVct-21">
          <mxGeometry relative="1" as="geometry">
            <Array as="points"/>
            <mxPoint x="859.5" y="543.38" as="sourcePoint"/>
            <mxPoint x="900" y="460" as="targetPoint"/>
          </mxGeometry>
        </mxCell>
        <mxCell id="Z3XzsynzwGdf3vpvGVct-24" style="edgeStyle=none;rounded=0;html=1;exitX=0.75;exitY=0;exitDx=0;exitDy=0;entryX=0.25;entryY=1;entryDx=0;entryDy=0;endArrow=classicThin;endFill=1;jettySize=auto;orthogonalLoop=1;dashed=1;" edge="1" parent="1" source="Z3XzsynzwGdf3vpvGVct-60" target="Z3XzsynzwGdf3vpvGVct-9">
          <mxGeometry relative="1" as="geometry">
            <mxPoint x="825" y="514" as="sourcePoint"/>
          </mxGeometry>
        </mxCell>
        <mxCell id="Z3XzsynzwGdf3vpvGVct-26" value="&lt;p style=&quot;margin: 0px ; margin-top: 4px ; text-align: center&quot;&gt;&lt;i&gt;&amp;lt;&amp;lt;Requirement&amp;gt;&amp;gt;&lt;/i&gt;&lt;br&gt;&lt;b&gt;Transmettre Les ordres&amp;nbsp;&lt;/b&gt;&lt;/p&gt;&lt;hr size=&quot;1&quot;&gt;&lt;p style=&quot;margin: 0px ; margin-left: 4px&quot;&gt;id =&quot;27&quot;&lt;/p&gt;&lt;p style=&quot;margin: 0px ; margin-left: 4px&quot;&gt;Text = &quot;Nous transmettrons chaque commande&lt;/p&gt;&lt;p style=&quot;margin: 0px ; margin-left: 4px&quot;&gt;à&amp;nbsp;&lt;span&gt;la carte&amp;nbsp;&lt;/span&gt;&lt;span&gt;de prototypage du système&amp;nbsp;(distant&amp;nbsp;&lt;/span&gt;&lt;/p&gt;&lt;p style=&quot;margin: 0px ; margin-left: 4px&quot;&gt;&lt;span&gt;à 20m max&lt;/span&gt;&lt;span&gt;) qui se&amp;nbsp;&lt;/span&gt;&lt;span&gt;charge de commander à&amp;nbsp;&lt;/span&gt;&lt;span&gt;son&lt;/span&gt;&lt;/p&gt;&lt;p style=&quot;margin: 0px ; margin-left: 4px&quot;&gt;&lt;span&gt;tour&amp;nbsp;&lt;/span&gt;&lt;span&gt;l&#39;affichage LCD ou le&amp;nbsp;&lt;/span&gt;&lt;span&gt;module sonore.&amp;nbsp;&lt;/span&gt;&lt;span&gt;Un&amp;nbsp;&lt;/span&gt;&lt;/p&gt;&lt;p style=&quot;margin: 0px ; margin-left: 4px&quot;&gt;&lt;span&gt;protocole de transmission devra être&amp;nbsp;&lt;/span&gt;&lt;span&gt;défini&amp;nbsp;&lt;/span&gt;&lt;span&gt;pour&amp;nbsp;&lt;/span&gt;&lt;/p&gt;&lt;p style=&quot;margin: 0px ; margin-left: 4px&quot;&gt;&lt;span&gt;que les données puissent être connues à la&amp;nbsp;&lt;/span&gt;&lt;/p&gt;&lt;p style=&quot;margin: 0px ; margin-left: 4px&quot;&gt;réception.&quot;&lt;/p&gt;" style="verticalAlign=top;align=left;overflow=fill;fontSize=12;fontFamily=Helvetica;html=1;fillColor=#FF7773;strokeColor=#990000;" vertex="1" parent="1">
          <mxGeometry x="-100" y="327.5" width="260" height="155" as="geometry"/>
        </mxCell>
        <mxCell id="Z3XzsynzwGdf3vpvGVct-29" value="&lt;p style=&quot;margin: 0px ; margin-top: 4px ; text-align: center&quot;&gt;&lt;i&gt;&amp;lt;&amp;lt;Requirement&amp;gt;&amp;gt;&lt;/i&gt;&lt;br&gt;&lt;b&gt;olfactive par conduction&amp;nbsp;&lt;/b&gt;&lt;/p&gt;&lt;p style=&quot;margin: 0px ; margin-top: 4px ; text-align: center&quot;&gt;&lt;b&gt;thermique&amp;nbsp;&lt;/b&gt;&lt;/p&gt;&lt;hr size=&quot;1&quot;&gt;&lt;p style=&quot;margin: 0px ; margin-left: 4px&quot;&gt;id =&quot;21&quot;&lt;/p&gt;&lt;p style=&quot;margin: 0px ; margin-left: 4px&quot;&gt;Text = &lt;span&gt;&quot;Nous devrons pouvoir choisir&amp;nbsp;&lt;/span&gt;&lt;/p&gt;&lt;p style=&quot;margin: 0px 0px 0px 4px&quot;&gt;facilement le mode de conduction&lt;/p&gt;&lt;p style=&quot;margin: 0px 0px 0px 4px&quot;&gt;désiré.&quot;&lt;/p&gt;" style="verticalAlign=top;align=left;overflow=fill;fontSize=12;fontFamily=Helvetica;html=1;fillColor=#b0e3e6;strokeColor=#0e8088;" vertex="1" parent="1">
          <mxGeometry x="140" y="512.5" width="200" height="124.5" as="geometry"/>
        </mxCell>
        <mxCell id="Z3XzsynzwGdf3vpvGVct-30" value="&lt;p style=&quot;margin: 0px ; margin-top: 4px ; text-align: center&quot;&gt;&lt;i&gt;&amp;lt;&amp;lt;Requirement&amp;gt;&amp;gt;&lt;/i&gt;&lt;br&gt;&lt;b&gt;Module Télé&amp;nbsp;&lt;/b&gt;&lt;/p&gt;&lt;hr size=&quot;1&quot;&gt;&lt;p style=&quot;margin: 0px ; margin-left: 4px&quot;&gt;id =&quot;22&quot;&lt;/p&gt;&lt;p style=&quot;margin: 0px ; margin-left: 4px&quot;&gt;Text = &quot;la diffusion sera déclenchée&amp;nbsp;&lt;/p&gt;&lt;p style=&quot;margin: 0px ; margin-left: 4px&quot;&gt;&lt;span&gt;uniquement si la capsule es détecter.&quot;&lt;/span&gt;&lt;/p&gt;" style="verticalAlign=top;align=left;overflow=fill;fontSize=12;fontFamily=Helvetica;html=1;fillColor=#b0e3e6;strokeColor=#0e8088;" vertex="1" parent="1">
          <mxGeometry x="120" y="660" width="210" height="95.5" as="geometry"/>
        </mxCell>
        <mxCell id="Z3XzsynzwGdf3vpvGVct-32" style="edgeStyle=none;rounded=0;html=1;exitX=0.335;exitY=0.009;exitDx=0;exitDy=0;dashed=1;jettySize=auto;orthogonalLoop=1;entryX=0.25;entryY=1;entryDx=0;entryDy=0;exitPerimeter=0;" edge="1" parent="1" source="Z3XzsynzwGdf3vpvGVct-39" target="Z3XzsynzwGdf3vpvGVct-21">
          <mxGeometry relative="1" as="geometry">
            <mxPoint x="929.1599999999999" y="433.21" as="sourcePoint"/>
            <mxPoint x="840" y="470" as="targetPoint"/>
          </mxGeometry>
        </mxCell>
        <mxCell id="Z3XzsynzwGdf3vpvGVct-33" style="edgeStyle=none;rounded=0;html=1;exitX=0.25;exitY=0;exitDx=0;exitDy=0;entryX=0.598;entryY=1.008;entryDx=0;entryDy=0;dashed=1;jettySize=auto;orthogonalLoop=1;entryPerimeter=0;" edge="1" parent="1" target="Z3XzsynzwGdf3vpvGVct-29" source="Z3XzsynzwGdf3vpvGVct-30">
          <mxGeometry relative="1" as="geometry">
            <mxPoint x="455" y="698.75" as="sourcePoint"/>
            <mxPoint x="470" y="646.75" as="targetPoint"/>
          </mxGeometry>
        </mxCell>
        <mxCell id="Z3XzsynzwGdf3vpvGVct-34" style="edgeStyle=none;rounded=0;html=1;exitX=1;exitY=0.25;exitDx=0;exitDy=0;entryX=0;entryY=0.75;entryDx=0;entryDy=0;dashed=1;jettySize=auto;orthogonalLoop=1;" edge="1" parent="1" target="Z3XzsynzwGdf3vpvGVct-7" source="Z3XzsynzwGdf3vpvGVct-29">
          <mxGeometry relative="1" as="geometry">
            <mxPoint x="429.1600000000001" y="516.5" as="sourcePoint"/>
            <mxPoint x="390.0049999999999" y="423.2929999999999" as="targetPoint"/>
          </mxGeometry>
        </mxCell>
        <mxCell id="Z3XzsynzwGdf3vpvGVct-35" style="edgeStyle=none;rounded=0;html=1;dashed=1;jettySize=auto;orthogonalLoop=1;entryX=0;entryY=0.75;entryDx=0;entryDy=0;" edge="1" parent="1" target="Z3XzsynzwGdf3vpvGVct-17">
          <mxGeometry relative="1" as="geometry">
            <mxPoint x="600" y="449.00000000000006" as="targetPoint"/>
            <Array as="points"/>
            <mxPoint x="120" y="229" as="sourcePoint"/>
          </mxGeometry>
        </mxCell>
        <mxCell id="Z3XzsynzwGdf3vpvGVct-36" style="edgeStyle=none;rounded=0;html=1;exitX=0.588;exitY=-0.023;exitDx=0;exitDy=0;dashed=1;jettySize=auto;orthogonalLoop=1;entryX=0.174;entryY=1;entryDx=0;entryDy=0;exitPerimeter=0;entryPerimeter=0;" edge="1" parent="1" source="Z3XzsynzwGdf3vpvGVct-26" target="Z3XzsynzwGdf3vpvGVct-17">
          <mxGeometry relative="1" as="geometry">
            <mxPoint x="660" y="550" as="targetPoint"/>
            <Array as="points"/>
            <mxPoint x="778.9549999999999" y="643.9999999999999" as="sourcePoint"/>
          </mxGeometry>
        </mxCell>
        <mxCell id="Z3XzsynzwGdf3vpvGVct-37" value="&lt;p style=&quot;margin: 0px ; margin-top: 4px ; text-align: center&quot;&gt;&lt;i&gt;&amp;lt;&amp;lt;Requirement&amp;gt;&amp;gt;&lt;/i&gt;&lt;br&gt;&lt;b&gt;Réveil&amp;nbsp;&lt;/b&gt;&lt;b&gt;par éclairage&lt;/b&gt;&lt;/p&gt;&lt;hr size=&quot;1&quot;&gt;&lt;p style=&quot;margin: 0px ; margin-left: 4px&quot;&gt;id =&quot;6&quot;&lt;/p&gt;&lt;p style=&quot;margin: 0px ; margin-left: 4px&quot;&gt;Text = &quot;Nous devons pouvoir choisir&amp;nbsp;&lt;/p&gt;&lt;p style=&quot;margin: 0px ; margin-left: 4px&quot;&gt;facilement le mode réveil par&amp;nbsp;&lt;/p&gt;&lt;p style=&quot;margin: 0px ; margin-left: 4px&quot;&gt;acoustique&amp;nbsp;&lt;span&gt;désiré.&quot;&lt;/span&gt;&lt;/p&gt;" style="verticalAlign=top;align=left;overflow=fill;fontSize=12;fontFamily=Helvetica;html=1;fillColor=#cdeb8b;strokeColor=#66CC00;" vertex="1" parent="1">
          <mxGeometry x="959" y="160" width="210" height="105" as="geometry"/>
        </mxCell>
        <mxCell id="Z3XzsynzwGdf3vpvGVct-39" value="&lt;p style=&quot;margin: 0px ; margin-top: 4px ; text-align: center&quot;&gt;&lt;i&gt;&amp;lt;&amp;lt;Requirement&amp;gt;&amp;gt;&lt;/i&gt;&lt;br&gt;&lt;b&gt;Réveil acoustique&amp;nbsp;&lt;/b&gt;&lt;/p&gt;&lt;hr size=&quot;1&quot;&gt;&lt;p style=&quot;margin: 0px ; margin-left: 4px&quot;&gt;id =&quot;12&quot;&lt;/p&gt;&lt;p style=&quot;margin: 0px ; margin-left: 4px&quot;&gt;Text = &quot;Nous devrons pouvoir choisir&amp;nbsp;&lt;/p&gt;&lt;p style=&quot;margin: 0px ; margin-left: 4px&quot;&gt;facilement le type d&#39;écoute ainsi que&amp;nbsp;&lt;/p&gt;&lt;p style=&quot;margin: 0px ; margin-left: 4px&quot;&gt;le volume sonore&lt;span&gt;.&quot;&lt;/span&gt;&lt;/p&gt;" style="verticalAlign=top;align=left;overflow=fill;fontSize=12;fontFamily=Helvetica;html=1;fillColor=#cce5ff;strokeColor=#36393d;" vertex="1" parent="1">
          <mxGeometry x="630" y="490" width="200" height="107.5" as="geometry"/>
        </mxCell>
        <mxCell id="Z3XzsynzwGdf3vpvGVct-41" value="&lt;p style=&quot;margin: 0px ; margin-top: 4px ; text-align: center&quot;&gt;&lt;i&gt;&amp;lt;&amp;lt;Requirement&amp;gt;&amp;gt;&lt;/i&gt;&lt;br&gt;&lt;b&gt;Réveil vibreur&lt;/b&gt;&lt;/p&gt;&lt;hr size=&quot;1&quot;&gt;&lt;p style=&quot;margin: 0px ; margin-left: 4px&quot;&gt;id =&quot;13&quot;&lt;/p&gt;&lt;p style=&quot;margin: 0px ; margin-left: 4px&quot;&gt;Text = &quot;Nous devrons pouvoir choisir&amp;nbsp;&lt;/p&gt;&lt;p style=&quot;margin: 0px ; margin-left: 4px&quot;&gt;facilement le mode de vibration&amp;nbsp;&lt;/p&gt;&lt;p style=&quot;margin: 0px ; margin-left: 4px&quot;&gt;désiré&lt;span&gt;.&quot;&lt;/span&gt;&lt;/p&gt;" style="verticalAlign=top;align=left;overflow=fill;fontSize=12;fontFamily=Helvetica;html=1;fillColor=#cce5ff;strokeColor=#36393d;" vertex="1" parent="1">
          <mxGeometry x="840" y="524.5" width="200" height="107.5" as="geometry"/>
        </mxCell>
        <mxCell id="Z3XzsynzwGdf3vpvGVct-43" value="&lt;p style=&quot;margin: 0px ; margin-top: 4px ; text-align: center&quot;&gt;&lt;i&gt;&amp;lt;&amp;lt;Requirement&amp;gt;&amp;gt;&lt;/i&gt;&lt;/p&gt;&lt;p style=&quot;margin: 0px ; margin-top: 4px ; text-align: center&quot;&gt;&lt;b&gt;Gestion audio&lt;/b&gt;&lt;/p&gt;&lt;hr size=&quot;1&quot;&gt;&lt;p style=&quot;margin: 0px ; margin-left: 4px&quot;&gt;id =&quot;14&quot;&lt;/p&gt;&lt;p style=&quot;margin: 0px ; margin-left: 4px&quot;&gt;Text =&amp;nbsp;&lt;span&gt;&quot;Nous devrons changer&amp;nbsp;&lt;/span&gt;&lt;/p&gt;&lt;p style=&quot;margin: 0px 0px 0px 4px&quot;&gt;facilement la piste de lecture&lt;span&gt;.&quot;&lt;/span&gt;&lt;/p&gt;" style="verticalAlign=top;align=left;overflow=fill;fontSize=12;fontFamily=Helvetica;html=1;fillColor=#cce5ff;strokeColor=#36393d;" vertex="1" parent="1">
          <mxGeometry x="620" y="621.25" width="176.5" height="98.75" as="geometry"/>
        </mxCell>
        <mxCell id="Z3XzsynzwGdf3vpvGVct-44" value="&lt;p style=&quot;margin: 0px ; margin-top: 4px ; text-align: center&quot;&gt;&lt;i&gt;&amp;lt;&amp;lt;Requirement&amp;gt;&amp;gt;&lt;/i&gt;&lt;br&gt;&lt;b&gt;Gestion volume&lt;/b&gt;&lt;/p&gt;&lt;hr size=&quot;1&quot;&gt;&lt;p style=&quot;margin: 0px ; margin-left: 4px&quot;&gt;id =&quot;15&quot;&lt;/p&gt;&lt;p style=&quot;margin: 0px ; margin-left: 4px&quot;&gt;Text = &quot;Nous devrons changer&amp;nbsp;&lt;/p&gt;&lt;p style=&quot;margin: 0px ; margin-left: 4px&quot;&gt;facilement le volume sonore&lt;span&gt;.&amp;nbsp;&lt;/span&gt;&lt;/p&gt;&lt;p style=&quot;margin: 0px ; margin-left: 4px&quot;&gt;&lt;span&gt;Un choix&amp;nbsp;&amp;nbsp;&lt;/span&gt;&lt;span&gt;de volume sur une&amp;nbsp;&lt;/span&gt;&lt;/p&gt;&lt;p style=&quot;margin: 0px ; margin-left: 4px&quot;&gt;&lt;span&gt;échelle de 0 à 10.&quot;&lt;/span&gt;&lt;/p&gt;" style="verticalAlign=top;align=left;overflow=fill;fontSize=12;fontFamily=Helvetica;html=1;fillColor=#cce5ff;strokeColor=#36393d;" vertex="1" parent="1">
          <mxGeometry x="806.5" y="690" width="170" height="117" as="geometry"/>
        </mxCell>
        <mxCell id="Z3XzsynzwGdf3vpvGVct-45" value="&lt;p style=&quot;margin: 0px ; margin-top: 4px ; text-align: center&quot;&gt;&lt;i&gt;&amp;lt;&amp;lt;Requirement&amp;gt;&amp;gt;&lt;/i&gt;&lt;br&gt;&lt;b&gt;Réglage réveil&lt;/b&gt;&lt;/p&gt;&lt;hr size=&quot;1&quot;&gt;&lt;p style=&quot;margin: 0px ; margin-left: 4px&quot;&gt;id =&quot;5&quot;&lt;/p&gt;&lt;p style=&quot;margin: 0px ; margin-left: 4px&quot;&gt;Text = &quot;le réglages du mode de réveil&lt;/p&gt;&lt;p style=&quot;margin: 0px ; margin-left: 4px&quot;&gt;&lt;span&gt;(acoustique, olfactive ou lumineux)&lt;/span&gt;&lt;/p&gt;&lt;p style=&quot;margin: 0px ; margin-left: 4px&quot;&gt;&lt;span&gt;pourront s’effectuer&amp;nbsp;à proximité ou à&amp;nbsp;&lt;/span&gt;&lt;/p&gt;&lt;p style=&quot;margin: 0px ; margin-left: 4px&quot;&gt;&lt;span&gt;distance de la Zen box.&quot;&lt;/span&gt;&lt;/p&gt;" style="verticalAlign=top;align=left;overflow=fill;fontSize=12;fontFamily=Helvetica;html=1;fillColor=#fff2cc;strokeColor=#d6b656;" vertex="1" parent="1">
          <mxGeometry x="940" y="10" width="210" height="120" as="geometry"/>
        </mxCell>
        <mxCell id="Z3XzsynzwGdf3vpvGVct-49" value="&lt;p style=&quot;margin: 0px ; margin-top: 4px ; text-align: center&quot;&gt;&lt;i&gt;&amp;lt;&amp;lt;Requirement&amp;gt;&amp;gt;&lt;/i&gt;&lt;br&gt;&lt;b&gt;Détection mouvement&amp;nbsp;&lt;/b&gt;&lt;/p&gt;&lt;hr size=&quot;1&quot;&gt;&lt;p style=&quot;margin: 0px ; margin-left: 4px&quot;&gt;id =&quot;17&quot;&lt;/p&gt;&lt;p style=&quot;margin: 0px ; margin-left: 4px&quot;&gt;Text = &quot;Ce mode réveil sera&amp;nbsp;&lt;/p&gt;&lt;p style=&quot;margin: 0px ; margin-left: 4px&quot;&gt;désactivé&amp;nbsp;&lt;span&gt;en cas de mouvement&amp;nbsp;&lt;/span&gt;&lt;/p&gt;&lt;p style=&quot;margin: 0px ; margin-left: 4px&quot;&gt;&lt;span&gt;de l&#39;utilisateur.&quot;&lt;/span&gt;&lt;/p&gt;" style="verticalAlign=top;align=left;overflow=fill;fontSize=12;fontFamily=Helvetica;html=1;fillColor=#cce5ff;strokeColor=#36393d;" vertex="1" parent="1">
          <mxGeometry x="1090" y="570" width="180" height="100" as="geometry"/>
        </mxCell>
        <mxCell id="Z3XzsynzwGdf3vpvGVct-50" value="&lt;p style=&quot;margin: 0px ; margin-top: 4px ; text-align: center&quot;&gt;&lt;i&gt;&amp;lt;&amp;lt;Requirement&amp;gt;&amp;gt;&lt;/i&gt;&lt;br&gt;&lt;b&gt;Fréquence vibration&lt;/b&gt;&lt;/p&gt;&lt;hr size=&quot;1&quot;&gt;&lt;p style=&quot;margin: 0px ; margin-left: 4px&quot;&gt;id =&quot;18&quot;&lt;/p&gt;&lt;p style=&quot;margin: 0px ; margin-left: 4px&quot;&gt;Text = &quot;les gammes de&amp;nbsp;&lt;/p&gt;&lt;p style=&quot;margin: 0px ; margin-left: 4px&quot;&gt;fréquence&amp;nbsp;&amp;nbsp;&lt;span&gt;seront compris&amp;nbsp;&lt;/span&gt;&lt;/p&gt;&lt;p style=&quot;margin: 0px ; margin-left: 4px&quot;&gt;&lt;span&gt;entre 0 et 150 Hz&lt;/span&gt;&lt;span&gt;.&quot;&lt;/span&gt;&lt;/p&gt;" style="verticalAlign=top;align=left;overflow=fill;fontSize=12;fontFamily=Helvetica;html=1;fillColor=#cce5ff;strokeColor=#36393d;" vertex="1" parent="1">
          <mxGeometry x="991" y="690" width="159" height="117" as="geometry"/>
        </mxCell>
        <mxCell id="Z3XzsynzwGdf3vpvGVct-51" value="&lt;p style=&quot;margin: 0px ; margin-top: 4px ; text-align: center&quot;&gt;&lt;i&gt;&amp;lt;&amp;lt;Requirement&amp;gt;&amp;gt;&lt;/i&gt;&lt;/p&gt;&lt;p style=&quot;margin: 0px ; margin-top: 4px ; text-align: center&quot;&gt;&lt;b&gt;Gestion audio&lt;/b&gt;&lt;/p&gt;&lt;hr size=&quot;1&quot;&gt;&lt;p style=&quot;margin: 0px ; margin-left: 4px&quot;&gt;id =&quot;16&quot;&lt;/p&gt;&lt;p style=&quot;margin: 0px ; margin-left: 4px&quot;&gt;Text =&amp;nbsp;&lt;span&gt;&quot;les liste de lecture seront&amp;nbsp;&lt;/span&gt;&lt;/p&gt;&lt;p style=&quot;margin: 0px ; margin-left: 4px&quot;&gt;&lt;span&gt;au nombre de 10 minimum.&quot;&lt;/span&gt;&lt;/p&gt;" style="verticalAlign=top;align=left;overflow=fill;fontSize=12;fontFamily=Helvetica;html=1;fillColor=#cce5ff;strokeColor=#36393d;" vertex="1" parent="1">
          <mxGeometry x="570" y="728" width="180" height="98.75" as="geometry"/>
        </mxCell>
        <mxCell id="Z3XzsynzwGdf3vpvGVct-53" style="edgeStyle=none;rounded=0;html=1;exitX=-0.011;exitY=0.434;exitDx=0;exitDy=0;dashed=1;jettySize=auto;orthogonalLoop=1;entryX=1;entryY=0.25;entryDx=0;entryDy=0;exitPerimeter=0;" edge="1" parent="1" source="Z3XzsynzwGdf3vpvGVct-49" target="Z3XzsynzwGdf3vpvGVct-41">
          <mxGeometry relative="1" as="geometry">
            <Array as="points"/>
            <mxPoint x="765" y="671.25" as="sourcePoint"/>
            <mxPoint x="815" y="622" as="targetPoint"/>
          </mxGeometry>
        </mxCell>
        <mxCell id="Z3XzsynzwGdf3vpvGVct-54" style="edgeStyle=none;rounded=0;html=1;exitX=0.5;exitY=0;exitDx=0;exitDy=0;dashed=1;jettySize=auto;orthogonalLoop=1;entryX=0.75;entryY=1;entryDx=0;entryDy=0;" edge="1" parent="1" source="Z3XzsynzwGdf3vpvGVct-50" target="Z3XzsynzwGdf3vpvGVct-41">
          <mxGeometry relative="1" as="geometry">
            <Array as="points"/>
            <mxPoint x="970" y="673" as="sourcePoint"/>
            <mxPoint x="1020" y="624" as="targetPoint"/>
          </mxGeometry>
        </mxCell>
        <mxCell id="Z3XzsynzwGdf3vpvGVct-56" style="edgeStyle=none;rounded=0;html=1;exitX=0.5;exitY=0;exitDx=0;exitDy=0;dashed=1;jettySize=auto;orthogonalLoop=1;entryX=0.5;entryY=1;entryDx=0;entryDy=0;" edge="1" parent="1" source="Z3XzsynzwGdf3vpvGVct-43" target="Z3XzsynzwGdf3vpvGVct-39">
          <mxGeometry relative="1" as="geometry">
            <Array as="points"/>
            <mxPoint x="1170" y="635.25" as="sourcePoint"/>
            <mxPoint x="1220" y="586.25" as="targetPoint"/>
          </mxGeometry>
        </mxCell>
        <mxCell id="Z3XzsynzwGdf3vpvGVct-57" style="edgeStyle=none;rounded=0;html=1;dashed=1;jettySize=auto;orthogonalLoop=1;entryX=0.895;entryY=0.999;entryDx=0;entryDy=0;entryPerimeter=0;" edge="1" parent="1" source="Z3XzsynzwGdf3vpvGVct-44" target="Z3XzsynzwGdf3vpvGVct-39">
          <mxGeometry relative="1" as="geometry">
            <Array as="points"/>
            <mxPoint x="1330" y="662.5" as="sourcePoint"/>
            <mxPoint x="1380" y="613.5" as="targetPoint"/>
          </mxGeometry>
        </mxCell>
        <mxCell id="Z3XzsynzwGdf3vpvGVct-60" value="&lt;p style=&quot;margin: 0px ; margin-top: 4px ; text-align: center&quot;&gt;&lt;i&gt;&amp;lt;&amp;lt;Requirement&amp;gt;&amp;gt;&lt;/i&gt;&lt;br&gt;&lt;b&gt;Module de diffusion&lt;/b&gt;&lt;/p&gt;&lt;hr size=&quot;1&quot;&gt;&lt;p style=&quot;margin: 0px ; margin-left: 4px&quot;&gt;id =&quot;23&quot;&lt;/p&gt;&lt;p style=&quot;margin: 0px ; margin-left: 4px&quot;&gt;Text = &quot;Nous devon pouvoir choisir&amp;nbsp;&lt;/p&gt;&lt;p style=&quot;margin: 0px ; margin-left: 4px&quot;&gt;au&amp;nbsp;&lt;span&gt;minimum trois mode de diffusion :&lt;/span&gt;&lt;/p&gt;&lt;p style=&quot;margin: 0px ; margin-left: 4px&quot;&gt;&lt;span&gt;lent, moyen et rapide.&quot;&lt;/span&gt;&lt;/p&gt;" style="verticalAlign=top;align=left;overflow=fill;fontSize=12;fontFamily=Helvetica;html=1;fillColor=#b0e3e6;strokeColor=#0e8088;" vertex="1" parent="1">
          <mxGeometry x="360" y="660" width="200" height="100" as="geometry"/>
        </mxCell>
        <mxCell id="Z3XzsynzwGdf3vpvGVct-63" style="edgeStyle=none;rounded=0;html=1;entryX=0;entryY=0.75;entryDx=0;entryDy=0;endArrow=classicThin;endFill=1;jettySize=auto;orthogonalLoop=1;dashed=1;" edge="1" parent="1" source="Z3XzsynzwGdf3vpvGVct-30" target="Z3XzsynzwGdf3vpvGVct-9">
          <mxGeometry relative="1" as="geometry">
            <mxPoint x="540" y="690" as="sourcePoint"/>
            <mxPoint x="460" y="632.5" as="targetPoint"/>
          </mxGeometry>
        </mxCell>
        <mxCell id="Z3XzsynzwGdf3vpvGVct-64" style="edgeStyle=none;rounded=0;html=1;entryX=0.998;entryY=0.86;entryDx=0;entryDy=0;endArrow=classicThin;endFill=1;jettySize=auto;orthogonalLoop=1;dashed=1;entryPerimeter=0;exitX=0.25;exitY=0;exitDx=0;exitDy=0;" edge="1" parent="1" source="Z3XzsynzwGdf3vpvGVct-60" target="Z3XzsynzwGdf3vpvGVct-29">
          <mxGeometry relative="1" as="geometry">
            <mxPoint x="420" y="660" as="sourcePoint"/>
            <mxPoint x="570" y="625.75" as="targetPoint"/>
          </mxGeometry>
        </mxCell>
        <mxCell id="Z3XzsynzwGdf3vpvGVct-66" style="rounded=0;html=1;entryX=1.009;entryY=0.163;shadow=1;dashed=1;endArrow=openThin;endFill=0;jettySize=auto;orthogonalLoop=1;exitX=0;exitY=0.75;exitDx=0;exitDy=0;entryDx=0;entryDy=0;entryPerimeter=0;" edge="1" parent="1" source="Z3XzsynzwGdf3vpvGVct-45" target="Z3XzsynzwGdf3vpvGVct-1">
          <mxGeometry relative="1" as="geometry">
            <mxPoint x="945" y="130" as="sourcePoint"/>
            <mxPoint x="870" y="170" as="targetPoint"/>
          </mxGeometry>
        </mxCell>
        <mxCell id="Z3XzsynzwGdf3vpvGVct-68" style="edgeStyle=none;rounded=0;html=1;exitX=0;exitY=0.5;shadow=1;endArrow=circlePlus;endFill=0;jettySize=auto;orthogonalLoop=1;exitDx=0;exitDy=0;entryX=1;entryY=0.5;entryDx=0;entryDy=0;" edge="1" parent="1" source="Z3XzsynzwGdf3vpvGVct-37">
          <mxGeometry relative="1" as="geometry">
            <Array as="points"/>
            <mxPoint x="880" y="286.88" as="sourcePoint"/>
            <mxPoint x="840" y="213.13" as="targetPoint"/>
          </mxGeometry>
        </mxCell>
        <mxCell id="Z3XzsynzwGdf3vpvGVct-69" value="&lt;p style=&quot;margin: 0px ; margin-top: 4px ; text-align: center&quot;&gt;&lt;i&gt;&amp;lt;&amp;lt;Requirement&amp;gt;&amp;gt;&lt;/i&gt;&lt;br&gt;&lt;b&gt;Niveau éclairement&lt;/b&gt;&lt;/p&gt;&lt;hr size=&quot;1&quot;&gt;&lt;p style=&quot;margin: 0px ; margin-left: 4px&quot;&gt;id =&quot;8&quot;&lt;/p&gt;&lt;p style=&quot;margin: 0px ; margin-left: 4px&quot;&gt;Text = &quot;l&#39;éclairement lumineux&amp;nbsp;&lt;/p&gt;&lt;p style=&quot;margin: 0px ; margin-left: 4px&quot;&gt;devra&amp;nbsp;&lt;span&gt;varier de 0 à 125 lux.&quot;&lt;/span&gt;&lt;/p&gt;" style="verticalAlign=top;align=left;overflow=fill;fontSize=12;fontFamily=Helvetica;html=1;fillColor=#cdeb8b;strokeColor=#66CC00;" vertex="1" parent="1">
          <mxGeometry x="1189" y="245" width="170" height="95" as="geometry"/>
        </mxCell>
        <mxCell id="Z3XzsynzwGdf3vpvGVct-70" value="&lt;p style=&quot;margin: 0px ; margin-top: 4px ; text-align: center&quot;&gt;&lt;i&gt;&amp;lt;&amp;lt;Requirement&amp;gt;&amp;gt;&lt;/i&gt;&lt;br&gt;&lt;b&gt;Détection niveau&amp;nbsp;&lt;/b&gt;&lt;b&gt;éclairement&lt;/b&gt;&lt;/p&gt;&lt;hr size=&quot;1&quot;&gt;&lt;p style=&quot;margin: 0px ; margin-left: 4px&quot;&gt;id =&quot;7&quot;&lt;/p&gt;&lt;p style=&quot;margin: 0px ; margin-left: 4px&quot;&gt;Text = &quot;le mode réveil éclairage&amp;nbsp;&lt;/p&gt;&lt;p style=&quot;margin: 0px ; margin-left: 4px&quot;&gt;sera désactivé si l&#39;éclairement&amp;nbsp;&lt;/p&gt;&lt;p style=&quot;margin: 0px ; margin-left: 4px&quot;&gt;est&amp;nbsp;&lt;span&gt;supérieur à 125 lux.&lt;/span&gt;&lt;span&gt;&quot;&lt;/span&gt;&lt;/p&gt;" style="verticalAlign=top;align=left;overflow=fill;fontSize=12;fontFamily=Helvetica;html=1;fillColor=#cdeb8b;strokeColor=#66CC00;" vertex="1" parent="1">
          <mxGeometry x="1184.5" y="105" width="179" height="105" as="geometry"/>
        </mxCell>
        <mxCell id="Z3XzsynzwGdf3vpvGVct-74" style="edgeStyle=none;rounded=0;html=1;exitX=0.25;exitY=0;exitDx=0;exitDy=0;dashed=1;jettySize=auto;orthogonalLoop=1;" edge="1" parent="1" source="Z3XzsynzwGdf3vpvGVct-69">
          <mxGeometry relative="1" as="geometry">
            <Array as="points"/>
            <mxPoint x="1260" y="305" as="sourcePoint"/>
            <mxPoint x="1160" y="233" as="targetPoint"/>
          </mxGeometry>
        </mxCell>
        <mxCell id="Z3XzsynzwGdf3vpvGVct-75" style="edgeStyle=none;rounded=0;html=1;dashed=1;jettySize=auto;orthogonalLoop=1;exitX=0;exitY=0.25;exitDx=0;exitDy=0;entryX=0.75;entryY=0;entryDx=0;entryDy=0;" edge="1" parent="1" source="Z3XzsynzwGdf3vpvGVct-70" target="Z3XzsynzwGdf3vpvGVct-37">
          <mxGeometry relative="1" as="geometry">
            <Array as="points"/>
            <mxPoint x="1170" y="300" as="sourcePoint"/>
            <mxPoint x="1250" y="210" as="targetPoint"/>
          </mxGeometry>
        </mxCell>
        <mxCell id="Z3XzsynzwGdf3vpvGVct-80" style="edgeStyle=none;rounded=0;html=1;exitX=0.75;exitY=0;exitDx=0;exitDy=0;entryX=0.25;entryY=1;entryDx=0;entryDy=0;endArrow=classicThin;endFill=1;jettySize=auto;orthogonalLoop=1;dashed=1;" edge="1" parent="1" source="Z3XzsynzwGdf3vpvGVct-9">
          <mxGeometry relative="1" as="geometry">
            <mxPoint x="590" y="526" as="sourcePoint"/>
            <mxPoint x="520" y="482.5" as="targetPoint"/>
          </mxGeometry>
        </mxCell>
        <mxCell id="Z3XzsynzwGdf3vpvGVct-83" style="edgeStyle=none;rounded=0;html=1;dashed=1;jettySize=auto;orthogonalLoop=1;entryX=0.865;entryY=1.014;entryDx=0;entryDy=0;exitX=1;exitY=0.5;exitDx=0;exitDy=0;entryPerimeter=0;" edge="1" parent="1" source="Z3XzsynzwGdf3vpvGVct-51" target="Z3XzsynzwGdf3vpvGVct-43">
          <mxGeometry relative="1" as="geometry">
            <Array as="points"/>
            <mxPoint x="780" y="769.56" as="sourcePoint"/>
            <mxPoint x="800" y="713.435" as="targetPoint"/>
          </mxGeometry>
        </mxCell>
        <mxCell id="Z3XzsynzwGdf3vpvGVct-84" value="&lt;p style=&quot;margin: 0px ; margin-top: 4px ; text-align: center&quot;&gt;&lt;i&gt;&amp;lt;&amp;lt;Requirement&amp;gt;&amp;gt;&lt;/i&gt;&lt;br&gt;&lt;b&gt;Gestion de l&#39;heur&lt;/b&gt;&lt;b&gt;e&lt;/b&gt;&lt;/p&gt;&lt;hr size=&quot;1&quot;&gt;&lt;p style=&quot;margin: 0px ; margin-left: 4px&quot;&gt;id =&quot;9&quot;&lt;/p&gt;&lt;p style=&quot;margin: 0px ; margin-left: 4px&quot;&gt;Text = &quot;Nous devons pouvoir régler&lt;/p&gt;&lt;p style=&quot;margin: 0px ; margin-left: 4px&quot;&gt;facilement les heures et la date de&amp;nbsp;&lt;/p&gt;&lt;p style=&quot;margin: 0px ; margin-left: 4px&quot;&gt;l&#39;affichage courant ainsi que l&#39;alarme&lt;span&gt;.&quot;&lt;/span&gt;&lt;/p&gt;" style="verticalAlign=top;align=left;overflow=fill;fontSize=12;fontFamily=Helvetica;html=1;fillColor=#bac8d3;strokeColor=#23445d;" vertex="1" parent="1">
          <mxGeometry x="970" y="280" width="211" height="105" as="geometry"/>
        </mxCell>
        <mxCell id="Z3XzsynzwGdf3vpvGVct-85" style="edgeStyle=none;rounded=0;html=1;exitX=0;exitY=0.5;shadow=1;endArrow=circlePlus;endFill=0;jettySize=auto;orthogonalLoop=1;exitDx=0;exitDy=0;entryX=1;entryY=0.5;entryDx=0;entryDy=0;" edge="1" parent="1" source="Z3XzsynzwGdf3vpvGVct-84" target="Z3XzsynzwGdf3vpvGVct-1">
          <mxGeometry relative="1" as="geometry">
            <Array as="points"/>
            <mxPoint x="969" y="222.5" as="sourcePoint"/>
            <mxPoint x="850" y="223.13" as="targetPoint"/>
          </mxGeometry>
        </mxCell>
        <mxCell id="Z3XzsynzwGdf3vpvGVct-87" value="&lt;p style=&quot;margin: 0px ; margin-top: 4px ; text-align: center&quot;&gt;&lt;i&gt;&amp;lt;&amp;lt;Requirement&amp;gt;&amp;gt;&lt;/i&gt;&lt;br&gt;&lt;b&gt;Format de l&#39;heur&lt;/b&gt;&lt;b&gt;e&lt;/b&gt;&lt;/p&gt;&lt;hr size=&quot;1&quot;&gt;&lt;p style=&quot;margin: 0px ; margin-left: 4px&quot;&gt;id =&quot;10&quot;&lt;/p&gt;&lt;p style=&quot;margin: 0px ; margin-left: 4px&quot;&gt;Text = &quot;La forma retenu sera&amp;nbsp;&lt;/p&gt;&lt;p style=&quot;margin: 0px ; margin-left: 4px&quot;&gt;&amp;lt;JOUR MOIS ANNÉE&amp;gt; pour la date&lt;/p&gt;&lt;p style=&quot;margin: 0px ; margin-left: 4px&quot;&gt;&lt;span&gt;et &amp;lt;HH:MM:SS&amp;gt; pour l&#39;heure.&quot;&lt;/span&gt;&lt;/p&gt;&lt;p style=&quot;margin: 0px ; margin-left: 4px&quot;&gt;l&#39;emploi d&#39;un module RTC (Real&amp;nbsp;&lt;/p&gt;&lt;p style=&quot;margin: 0px ; margin-left: 4px&quot;&gt;Time&amp;nbsp;&lt;span&gt;Clook)&amp;nbsp;&lt;/span&gt;&lt;span&gt;est recommandé.&quot;&lt;/span&gt;&lt;/p&gt;" style="verticalAlign=top;align=left;overflow=fill;fontSize=12;fontFamily=Helvetica;html=1;fillColor=#bac8d3;strokeColor=#23445d;" vertex="1" parent="1">
          <mxGeometry x="1050" y="420" width="200" height="130" as="geometry"/>
        </mxCell>
        <mxCell id="Z3XzsynzwGdf3vpvGVct-89" style="edgeStyle=none;rounded=0;html=1;exitX=0.5;exitY=0;exitDx=0;exitDy=0;dashed=1;jettySize=auto;orthogonalLoop=1;entryX=0.5;entryY=1;entryDx=0;entryDy=0;" edge="1" parent="1" source="Z3XzsynzwGdf3vpvGVct-87" target="Z3XzsynzwGdf3vpvGVct-84">
          <mxGeometry relative="1" as="geometry">
            <Array as="points"/>
            <mxPoint x="1125" y="443" as="sourcePoint"/>
            <mxPoint x="1085" y="383" as="targetPoint"/>
          </mxGeometry>
        </mxCell>
      </root>
    </mxGraphModel>
  </diagram>
</mxfile>
